# xmcd
#
# Track frame offsets:
# 150
# 3901
# 24533
# 45956
# 66727
# 86689
# 92206
# 106729
# 128989
# 147354
# 168088
# 184839
# 205622
# 232911
#
# Disc length: 3379 seconds
#
#
# Revision: 1
# Processed by: cddbd v1.4PL0 Copyright (c) Steve Scherf et al.
# Submitted via: FreeRIP 2.00 
#
DISCID=b10d310e
DTITLE=Bad Boy Records - We Invented The Remix
DYEAR=2002
DGENRE=Hip Hop
TTITLE0=Intro
TTITLE1=Special Delivery Remix - G Dep, Keith Murray, Ghostface Killah and Craig Mack
TTITLE2=I Need A Girl (Part 2) - P.Diddy, Ginuwine, Loon, Mario Winans and Tammy Ruggeri
TTITLE3=Bad Boy For Life Remix - P.Diddy, M.O.P. and Busta Rhymes
TTITLE4=I Need A Girl (Part 1) - P.Diddy, Usher and Loon
TTITLE5=The Remix Phenomenon Interlude
TTITLE6=Unfoolish - Ashanti and Notorious B.I.G.
TTITLE7=Dance With Me Remix - 112 and Beanie Sigel - Peaches and Cream Remix - 112 and Ludacris
TTITLE8=No More Drama Remix - Mary J. Blige and P.Diddy
TTITLE9=So Complete Remix - P.Diddy and Cheri Dennis
TTITLE10=Notorious BIG Remix - Notorious B.I.G., Lil Kim and P.Diddy
TTITLE11=That's Crazy - P.Diddy, Missy Elliot, G Dep and Snoop Dogg
TTITLE12=Woke Up In The Morning Remix - Carl Thomas and Notorious B.I.G.
TTITLE13=You Gets No Love Remix - G Dep and Faith Evans
EXTD=
EXTT0=
EXTT1=
EXTT2=
EXTT3=
EXTT4=
EXTT5=
EXTT6=
EXTT7=
EXTT8=
EXTT9=
EXTT10=
EXTT11=
EXTT12=
EXTT13=
PLAYORDER=
